<mxfile host="app.diagrams.net" agent="Mozilla/5.0 (Windows NT 10.0; Win64; x64) AppleWebKit/537.36 (KHTML, like Gecko) Chrome/134.0.0.0 Safari/537.36" version="26.0.6">
  <diagram name="第 1 页" id="_WoBSNBqqMukpzqZPp-9">
    <mxGraphModel dx="2714" dy="1426" grid="1" gridSize="10" guides="1" tooltips="1" connect="1" arrows="1" fold="1" page="1" pageScale="1" pageWidth="827" pageHeight="1169" math="0" shadow="0">
      <root>
        <mxCell id="0" />
        <mxCell id="1" parent="0" />
        <mxCell id="fZVCOgSi_mHKolly4ZE5-50" value="" style="rounded=0;whiteSpace=wrap;html=1;dashed=1;dashPattern=12 12;" parent="1" vertex="1">
          <mxGeometry x="153" y="825" width="880" height="160" as="geometry" />
        </mxCell>
        <mxCell id="fZVCOgSi_mHKolly4ZE5-34" value="" style="rounded=0;whiteSpace=wrap;html=1;dashed=1;dashPattern=12 12;" parent="1" vertex="1">
          <mxGeometry x="24" y="573" width="1110" height="210" as="geometry" />
        </mxCell>
        <mxCell id="fZVCOgSi_mHKolly4ZE5-2" value="" style="rounded=0;whiteSpace=wrap;html=1;dashed=1;dashPattern=12 12;" parent="1" vertex="1">
          <mxGeometry x="155" y="18" width="840" height="120" as="geometry" />
        </mxCell>
        <mxCell id="fZVCOgSi_mHKolly4ZE5-3" value="&lt;font style=&quot;font-size: 20px;&quot;&gt;基础地理数据&lt;/font&gt;" style="rounded=0;whiteSpace=wrap;html=1;" parent="1" vertex="1">
          <mxGeometry x="180" y="70" width="130" height="50" as="geometry" />
        </mxCell>
        <mxCell id="fZVCOgSi_mHKolly4ZE5-4" value="&lt;font style=&quot;font-size: 20px;&quot;&gt;地质资料&lt;/font&gt;" style="rounded=0;whiteSpace=wrap;html=1;" parent="1" vertex="1">
          <mxGeometry x="353" y="70" width="120" height="50" as="geometry" />
        </mxCell>
        <mxCell id="fZVCOgSi_mHKolly4ZE5-7" value="&lt;font style=&quot;font-size: 20px;&quot;&gt;地质灾害&lt;/font&gt;" style="rounded=0;whiteSpace=wrap;html=1;" parent="1" vertex="1">
          <mxGeometry x="519" y="70" width="120" height="50" as="geometry" />
        </mxCell>
        <mxCell id="fZVCOgSi_mHKolly4ZE5-8" value="&lt;span style=&quot;font-size: 20px;&quot;&gt;遥感影像&lt;/span&gt;" style="rounded=0;whiteSpace=wrap;html=1;" parent="1" vertex="1">
          <mxGeometry x="684" y="70" width="120" height="50" as="geometry" />
        </mxCell>
        <mxCell id="fZVCOgSi_mHKolly4ZE5-12" value="&lt;font style=&quot;font-size: 20px;&quot;&gt;其他&lt;/font&gt;" style="rounded=0;whiteSpace=wrap;html=1;" parent="1" vertex="1">
          <mxGeometry x="850" y="70" width="120" height="50" as="geometry" />
        </mxCell>
        <mxCell id="fZVCOgSi_mHKolly4ZE5-13" value="&lt;font style=&quot;font-size: 24px;&quot;&gt;已有资料收集&lt;/font&gt;" style="rounded=0;whiteSpace=wrap;html=1;opacity=0;" parent="1" vertex="1">
          <mxGeometry x="460" y="10" width="230" height="60" as="geometry" />
        </mxCell>
        <mxCell id="fZVCOgSi_mHKolly4ZE5-14" value="&lt;font style=&quot;font-size: 20px;&quot;&gt;已有资料收集&lt;/font&gt;" style="rounded=0;whiteSpace=wrap;html=1;opacity=0;" parent="1" vertex="1">
          <mxGeometry x="433" y="178" width="230" height="60" as="geometry" />
        </mxCell>
        <mxCell id="fZVCOgSi_mHKolly4ZE5-15" value="" style="rounded=0;whiteSpace=wrap;html=1;dashed=1;dashPattern=12 12;" parent="1" vertex="1">
          <mxGeometry x="20" y="178" width="1110" height="350" as="geometry" />
        </mxCell>
        <mxCell id="fZVCOgSi_mHKolly4ZE5-16" value="&lt;font style=&quot;font-size: 24px;&quot;&gt;实景三维精密测绘与现场调查&lt;/font&gt;" style="rounded=0;whiteSpace=wrap;html=1;opacity=0;" parent="1" vertex="1">
          <mxGeometry x="410" y="168" width="331.5" height="60" as="geometry" />
        </mxCell>
        <mxCell id="fZVCOgSi_mHKolly4ZE5-79" style="edgeStyle=orthogonalEdgeStyle;rounded=0;orthogonalLoop=1;jettySize=auto;html=1;entryX=0.5;entryY=0;entryDx=0;entryDy=0;" parent="1" source="fZVCOgSi_mHKolly4ZE5-17" target="fZVCOgSi_mHKolly4ZE5-18" edge="1">
          <mxGeometry relative="1" as="geometry">
            <Array as="points">
              <mxPoint x="310" y="288" />
              <mxPoint x="179" y="288" />
            </Array>
          </mxGeometry>
        </mxCell>
        <mxCell id="fZVCOgSi_mHKolly4ZE5-80" style="edgeStyle=orthogonalEdgeStyle;rounded=0;orthogonalLoop=1;jettySize=auto;html=1;" parent="1" source="fZVCOgSi_mHKolly4ZE5-17" target="fZVCOgSi_mHKolly4ZE5-19" edge="1">
          <mxGeometry relative="1" as="geometry">
            <Array as="points">
              <mxPoint x="310" y="288" />
              <mxPoint x="449" y="288" />
            </Array>
          </mxGeometry>
        </mxCell>
        <mxCell id="fZVCOgSi_mHKolly4ZE5-17" value="&lt;font style=&quot;font-size: 20px;&quot;&gt;实景三维构建&lt;/font&gt;" style="rounded=0;whiteSpace=wrap;html=1;" parent="1" vertex="1">
          <mxGeometry x="230" y="236" width="160" height="40" as="geometry" />
        </mxCell>
        <mxCell id="fZVCOgSi_mHKolly4ZE5-83" style="edgeStyle=orthogonalEdgeStyle;rounded=0;orthogonalLoop=1;jettySize=auto;html=1;entryX=0.5;entryY=0;entryDx=0;entryDy=0;" parent="1" source="fZVCOgSi_mHKolly4ZE5-18" target="fZVCOgSi_mHKolly4ZE5-81" edge="1">
          <mxGeometry relative="1" as="geometry">
            <Array as="points">
              <mxPoint x="179" y="368" />
              <mxPoint x="324" y="368" />
            </Array>
          </mxGeometry>
        </mxCell>
        <mxCell id="fZVCOgSi_mHKolly4ZE5-18" value="&lt;span style=&quot;font-size: 20px;&quot;&gt;全流域卫星遥感影像获取&lt;/span&gt;" style="rounded=0;whiteSpace=wrap;html=1;" parent="1" vertex="1">
          <mxGeometry x="57" y="308" width="244" height="50" as="geometry" />
        </mxCell>
        <mxCell id="fZVCOgSi_mHKolly4ZE5-84" style="edgeStyle=orthogonalEdgeStyle;rounded=0;orthogonalLoop=1;jettySize=auto;html=1;entryX=0.5;entryY=0;entryDx=0;entryDy=0;" parent="1" source="fZVCOgSi_mHKolly4ZE5-19" target="fZVCOgSi_mHKolly4ZE5-81" edge="1">
          <mxGeometry relative="1" as="geometry">
            <Array as="points">
              <mxPoint x="449" y="368" />
              <mxPoint x="324" y="368" />
            </Array>
          </mxGeometry>
        </mxCell>
        <mxCell id="fZVCOgSi_mHKolly4ZE5-19" value="&lt;span style=&quot;font-size: 20px;&quot;&gt;重点地段无人机影像获取&lt;/span&gt;" style="rounded=0;whiteSpace=wrap;html=1;" parent="1" vertex="1">
          <mxGeometry x="327" y="308" width="244" height="50" as="geometry" />
        </mxCell>
        <mxCell id="fZVCOgSi_mHKolly4ZE5-24" value="&lt;font style=&quot;font-size: 20px;&quot;&gt;实景三维模型&lt;/font&gt;" style="rounded=0;whiteSpace=wrap;html=1;" parent="1" vertex="1">
          <mxGeometry x="238" y="472" width="160" height="40" as="geometry" />
        </mxCell>
        <mxCell id="fZVCOgSi_mHKolly4ZE5-74" style="edgeStyle=orthogonalEdgeStyle;rounded=0;orthogonalLoop=1;jettySize=auto;html=1;entryX=0.5;entryY=0;entryDx=0;entryDy=0;" parent="1" source="fZVCOgSi_mHKolly4ZE5-25" target="fZVCOgSi_mHKolly4ZE5-27" edge="1">
          <mxGeometry relative="1" as="geometry" />
        </mxCell>
        <mxCell id="fZVCOgSi_mHKolly4ZE5-75" style="edgeStyle=orthogonalEdgeStyle;rounded=0;orthogonalLoop=1;jettySize=auto;html=1;entryX=0.5;entryY=0;entryDx=0;entryDy=0;" parent="1" source="fZVCOgSi_mHKolly4ZE5-25" target="fZVCOgSi_mHKolly4ZE5-29" edge="1">
          <mxGeometry relative="1" as="geometry" />
        </mxCell>
        <mxCell id="fZVCOgSi_mHKolly4ZE5-89" style="edgeStyle=orthogonalEdgeStyle;rounded=0;orthogonalLoop=1;jettySize=auto;html=1;entryX=0.5;entryY=0;entryDx=0;entryDy=0;" parent="1" source="fZVCOgSi_mHKolly4ZE5-25" target="fZVCOgSi_mHKolly4ZE5-28" edge="1">
          <mxGeometry relative="1" as="geometry" />
        </mxCell>
        <mxCell id="fZVCOgSi_mHKolly4ZE5-25" value="&lt;font style=&quot;font-size: 20px;&quot;&gt;物探调查&lt;/font&gt;" style="rounded=0;whiteSpace=wrap;html=1;" parent="1" vertex="1">
          <mxGeometry x="665.5" y="238" width="150" height="40" as="geometry" />
        </mxCell>
        <mxCell id="fZVCOgSi_mHKolly4ZE5-76" value="" style="edgeStyle=orthogonalEdgeStyle;rounded=0;orthogonalLoop=1;jettySize=auto;html=1;" parent="1" source="fZVCOgSi_mHKolly4ZE5-26" target="fZVCOgSi_mHKolly4ZE5-31" edge="1">
          <mxGeometry relative="1" as="geometry" />
        </mxCell>
        <mxCell id="fZVCOgSi_mHKolly4ZE5-77" style="edgeStyle=orthogonalEdgeStyle;rounded=0;orthogonalLoop=1;jettySize=auto;html=1;entryX=0.5;entryY=0;entryDx=0;entryDy=0;" parent="1" source="fZVCOgSi_mHKolly4ZE5-26" target="fZVCOgSi_mHKolly4ZE5-30" edge="1">
          <mxGeometry relative="1" as="geometry" />
        </mxCell>
        <mxCell id="fZVCOgSi_mHKolly4ZE5-78" style="edgeStyle=orthogonalEdgeStyle;rounded=0;orthogonalLoop=1;jettySize=auto;html=1;entryX=0.5;entryY=0;entryDx=0;entryDy=0;" parent="1" source="fZVCOgSi_mHKolly4ZE5-26" target="fZVCOgSi_mHKolly4ZE5-32" edge="1">
          <mxGeometry relative="1" as="geometry" />
        </mxCell>
        <mxCell id="fZVCOgSi_mHKolly4ZE5-26" value="&lt;font style=&quot;font-size: 20px;&quot;&gt;现场调查&lt;/font&gt;" style="rounded=0;whiteSpace=wrap;html=1;" parent="1" vertex="1">
          <mxGeometry x="911" y="238" width="150" height="40" as="geometry" />
        </mxCell>
        <mxCell id="fZVCOgSi_mHKolly4ZE5-27" value="&lt;font style=&quot;font-size: 20px;&quot;&gt;航空地质雷达&lt;/font&gt;" style="rounded=0;whiteSpace=wrap;html=1;" parent="1" vertex="1">
          <mxGeometry x="647" y="318" width="41" height="190" as="geometry" />
        </mxCell>
        <mxCell id="fZVCOgSi_mHKolly4ZE5-28" value="&lt;font style=&quot;font-size: 20px;&quot;&gt;航空电磁&lt;/font&gt;" style="rounded=0;whiteSpace=wrap;html=1;" parent="1" vertex="1">
          <mxGeometry x="720" y="318" width="41" height="190" as="geometry" />
        </mxCell>
        <mxCell id="fZVCOgSi_mHKolly4ZE5-29" value="&lt;font style=&quot;font-size: 20px;&quot;&gt;高密度电法&lt;/font&gt;" style="rounded=0;whiteSpace=wrap;html=1;" parent="1" vertex="1">
          <mxGeometry x="791" y="318" width="41" height="190" as="geometry" />
        </mxCell>
        <mxCell id="fZVCOgSi_mHKolly4ZE5-30" value="&lt;font style=&quot;font-size: 20px;&quot;&gt;野外调查&lt;/font&gt;" style="rounded=0;whiteSpace=wrap;html=1;" parent="1" vertex="1">
          <mxGeometry x="891" y="318" width="41" height="190" as="geometry" />
        </mxCell>
        <mxCell id="fZVCOgSi_mHKolly4ZE5-31" value="&lt;font style=&quot;font-size: 20px;&quot;&gt;地质测绘&lt;/font&gt;" style="rounded=0;whiteSpace=wrap;html=1;" parent="1" vertex="1">
          <mxGeometry x="965.5" y="318" width="41" height="190" as="geometry" />
        </mxCell>
        <mxCell id="fZVCOgSi_mHKolly4ZE5-32" value="&lt;font style=&quot;font-size: 20px;&quot;&gt;稳定性分析评价&lt;/font&gt;" style="rounded=0;whiteSpace=wrap;html=1;" parent="1" vertex="1">
          <mxGeometry x="1041" y="318" width="41" height="190" as="geometry" />
        </mxCell>
        <mxCell id="fZVCOgSi_mHKolly4ZE5-33" value="&lt;font style=&quot;font-size: 24px;&quot;&gt;遥感解译与风险评价&lt;/font&gt;" style="rounded=0;whiteSpace=wrap;html=1;opacity=0;" parent="1" vertex="1">
          <mxGeometry x="442.5" y="563" width="273" height="60" as="geometry" />
        </mxCell>
        <mxCell id="fZVCOgSi_mHKolly4ZE5-91" style="edgeStyle=orthogonalEdgeStyle;rounded=0;orthogonalLoop=1;jettySize=auto;html=1;entryX=0.5;entryY=0;entryDx=0;entryDy=0;" parent="1" source="fZVCOgSi_mHKolly4ZE5-35" target="fZVCOgSi_mHKolly4ZE5-43" edge="1">
          <mxGeometry relative="1" as="geometry" />
        </mxCell>
        <mxCell id="fZVCOgSi_mHKolly4ZE5-92" style="edgeStyle=orthogonalEdgeStyle;rounded=0;orthogonalLoop=1;jettySize=auto;html=1;entryX=0.5;entryY=0;entryDx=0;entryDy=0;" parent="1" source="fZVCOgSi_mHKolly4ZE5-35" target="fZVCOgSi_mHKolly4ZE5-36" edge="1">
          <mxGeometry relative="1" as="geometry">
            <Array as="points">
              <mxPoint x="299" y="688" />
              <mxPoint x="121" y="688" />
            </Array>
          </mxGeometry>
        </mxCell>
        <mxCell id="fZVCOgSi_mHKolly4ZE5-35" value="&lt;font style=&quot;font-size: 20px;&quot;&gt;遥感解译&lt;/font&gt;" style="rounded=0;whiteSpace=wrap;html=1;" parent="1" vertex="1">
          <mxGeometry x="219" y="632" width="160" height="40" as="geometry" />
        </mxCell>
        <mxCell id="fZVCOgSi_mHKolly4ZE5-36" value="&lt;font style=&quot;font-size: 20px;&quot;&gt;承灾体解译&lt;/font&gt;" style="rounded=0;whiteSpace=wrap;html=1;" parent="1" vertex="1">
          <mxGeometry x="52" y="712" width="137" height="50" as="geometry" />
        </mxCell>
        <mxCell id="fZVCOgSi_mHKolly4ZE5-43" value="&lt;span style=&quot;font-size: 20px;&quot;&gt;泥石流特征解译&lt;/span&gt;" style="rounded=0;whiteSpace=wrap;html=1;" parent="1" vertex="1">
          <mxGeometry x="219" y="712" width="160" height="50" as="geometry" />
        </mxCell>
        <mxCell id="fZVCOgSi_mHKolly4ZE5-44" value="&lt;span style=&quot;font-size: 20px;&quot;&gt;物源解译&lt;/span&gt;" style="rounded=0;whiteSpace=wrap;html=1;" parent="1" vertex="1">
          <mxGeometry x="405" y="712" width="139" height="50" as="geometry" />
        </mxCell>
        <mxCell id="fZVCOgSi_mHKolly4ZE5-45" value="&lt;span style=&quot;font-size: 20px;&quot;&gt;易发性评价&lt;/span&gt;" style="rounded=0;whiteSpace=wrap;html=1;" parent="1" vertex="1">
          <mxGeometry x="606" y="712" width="138" height="50" as="geometry" />
        </mxCell>
        <mxCell id="fZVCOgSi_mHKolly4ZE5-46" value="&lt;span style=&quot;font-size: 20px;&quot;&gt;危险性评价&lt;/span&gt;" style="rounded=0;whiteSpace=wrap;html=1;" parent="1" vertex="1">
          <mxGeometry x="774" y="712" width="160" height="50" as="geometry" />
        </mxCell>
        <mxCell id="fZVCOgSi_mHKolly4ZE5-47" value="&lt;span style=&quot;font-size: 20px;&quot;&gt;风险性评价&lt;/span&gt;" style="rounded=0;whiteSpace=wrap;html=1;" parent="1" vertex="1">
          <mxGeometry x="974" y="712" width="139" height="50" as="geometry" />
        </mxCell>
        <mxCell id="fZVCOgSi_mHKolly4ZE5-94" value="" style="edgeStyle=orthogonalEdgeStyle;rounded=0;orthogonalLoop=1;jettySize=auto;html=1;" parent="1" source="fZVCOgSi_mHKolly4ZE5-48" target="fZVCOgSi_mHKolly4ZE5-46" edge="1">
          <mxGeometry relative="1" as="geometry" />
        </mxCell>
        <mxCell id="fZVCOgSi_mHKolly4ZE5-48" value="&lt;span style=&quot;font-size: 20px;&quot;&gt;风险评价&lt;/span&gt;" style="rounded=0;whiteSpace=wrap;html=1;" parent="1" vertex="1">
          <mxGeometry x="774" y="632" width="160" height="40" as="geometry" />
        </mxCell>
        <mxCell id="fZVCOgSi_mHKolly4ZE5-49" value="&lt;font style=&quot;font-size: 24px;&quot;&gt;数据库建设&lt;/font&gt;" style="rounded=0;whiteSpace=wrap;html=1;opacity=0;" parent="1" vertex="1">
          <mxGeometry x="455" y="815" width="273" height="60" as="geometry" />
        </mxCell>
        <mxCell id="fZVCOgSi_mHKolly4ZE5-51" value="&lt;font style=&quot;font-size: 20px;&quot;&gt;实景三维数据&lt;/font&gt;" style="rounded=0;whiteSpace=wrap;html=1;" parent="1" vertex="1">
          <mxGeometry x="213" y="888" width="190" height="60" as="geometry" />
        </mxCell>
        <mxCell id="fZVCOgSi_mHKolly4ZE5-52" value="&lt;font style=&quot;font-size: 20px;&quot;&gt;基础地理实体数据&lt;/font&gt;" style="rounded=0;whiteSpace=wrap;html=1;" parent="1" vertex="1">
          <mxGeometry x="504" y="888" width="190" height="60" as="geometry" />
        </mxCell>
        <mxCell id="fZVCOgSi_mHKolly4ZE5-53" value="&lt;font style=&quot;font-size: 20px;&quot;&gt;泥石流灾害实体&lt;/font&gt;" style="rounded=0;whiteSpace=wrap;html=1;" parent="1" vertex="1">
          <mxGeometry x="794" y="888" width="190" height="60" as="geometry" />
        </mxCell>
        <mxCell id="fZVCOgSi_mHKolly4ZE5-54" value="" style="rounded=0;whiteSpace=wrap;html=1;dashed=1;dashPattern=12 12;" parent="1" vertex="1">
          <mxGeometry x="153" y="1025" width="880" height="160" as="geometry" />
        </mxCell>
        <mxCell id="fZVCOgSi_mHKolly4ZE5-55" value="&lt;font style=&quot;font-size: 24px;&quot;&gt;资料整理与成果编制&lt;/font&gt;" style="rounded=0;whiteSpace=wrap;html=1;opacity=0;" parent="1" vertex="1">
          <mxGeometry x="455" y="1015" width="273" height="60" as="geometry" />
        </mxCell>
        <mxCell id="fZVCOgSi_mHKolly4ZE5-56" value="&lt;font style=&quot;font-size: 20px;&quot;&gt;图件成果&lt;/font&gt;" style="rounded=0;whiteSpace=wrap;html=1;" parent="1" vertex="1">
          <mxGeometry x="189" y="1088" width="167" height="60" as="geometry" />
        </mxCell>
        <mxCell id="fZVCOgSi_mHKolly4ZE5-59" value="&lt;span style=&quot;font-size: 20px;&quot;&gt;数据成果&lt;/span&gt;" style="rounded=0;whiteSpace=wrap;html=1;" parent="1" vertex="1">
          <mxGeometry x="621" y="1088" width="167" height="60" as="geometry" />
        </mxCell>
        <mxCell id="fZVCOgSi_mHKolly4ZE5-60" value="&lt;font style=&quot;font-size: 20px;&quot;&gt;报告成果&lt;/font&gt;" style="rounded=0;whiteSpace=wrap;html=1;" parent="1" vertex="1">
          <mxGeometry x="405" y="1088" width="167" height="60" as="geometry" />
        </mxCell>
        <mxCell id="fZVCOgSi_mHKolly4ZE5-61" value="&lt;span style=&quot;font-size: 20px;&quot;&gt;三维可视化成果&lt;/span&gt;" style="rounded=0;whiteSpace=wrap;html=1;" parent="1" vertex="1">
          <mxGeometry x="837" y="1088" width="167" height="60" as="geometry" />
        </mxCell>
        <mxCell id="fZVCOgSi_mHKolly4ZE5-66" value="" style="shape=flexArrow;endArrow=classic;html=1;rounded=0;width=15.428571428571429;endSize=4.474285714285714;exitX=0.51;exitY=1.005;exitDx=0;exitDy=0;endWidth=12.326530612244897;exitPerimeter=0;" parent="1" source="fZVCOgSi_mHKolly4ZE5-15" edge="1">
          <mxGeometry width="50" height="50" relative="1" as="geometry">
            <mxPoint x="586" y="538" as="sourcePoint" />
            <mxPoint x="586" y="568" as="targetPoint" />
          </mxGeometry>
        </mxCell>
        <mxCell id="fZVCOgSi_mHKolly4ZE5-71" value="" style="shape=flexArrow;endArrow=classic;html=1;rounded=0;width=15.428571428571429;endSize=4.474285714285714;exitX=0.51;exitY=1.005;exitDx=0;exitDy=0;endWidth=12.326530612244897;exitPerimeter=0;" parent="1" edge="1">
          <mxGeometry width="50" height="50" relative="1" as="geometry">
            <mxPoint x="585.57" y="984" as="sourcePoint" />
            <mxPoint x="586" y="1023" as="targetPoint" />
          </mxGeometry>
        </mxCell>
        <mxCell id="fZVCOgSi_mHKolly4ZE5-72" value="" style="shape=flexArrow;endArrow=classic;html=1;rounded=0;width=15.428571428571429;endSize=4.474285714285714;exitX=0.51;exitY=1.005;exitDx=0;exitDy=0;endWidth=12.326530612244897;exitPerimeter=0;" parent="1" edge="1">
          <mxGeometry width="50" height="50" relative="1" as="geometry">
            <mxPoint x="585.57" y="784" as="sourcePoint" />
            <mxPoint x="586" y="823" as="targetPoint" />
          </mxGeometry>
        </mxCell>
        <mxCell id="fZVCOgSi_mHKolly4ZE5-86" value="" style="edgeStyle=orthogonalEdgeStyle;rounded=0;orthogonalLoop=1;jettySize=auto;html=1;" parent="1" source="fZVCOgSi_mHKolly4ZE5-81" target="fZVCOgSi_mHKolly4ZE5-24" edge="1">
          <mxGeometry relative="1" as="geometry">
            <Array as="points">
              <mxPoint x="320" y="478" />
              <mxPoint x="320" y="478" />
            </Array>
          </mxGeometry>
        </mxCell>
        <mxCell id="fZVCOgSi_mHKolly4ZE5-81" value="" style="rounded=0;whiteSpace=wrap;html=1;dashed=1;" parent="1" vertex="1">
          <mxGeometry x="38" y="384" width="572" height="69" as="geometry" />
        </mxCell>
        <mxCell id="fZVCOgSi_mHKolly4ZE5-20" value="&lt;font style=&quot;font-size: 20px;&quot;&gt;空三加密&lt;/font&gt;" style="rounded=0;whiteSpace=wrap;html=1;" parent="1" vertex="1">
          <mxGeometry x="50" y="396" width="120" height="40" as="geometry" />
        </mxCell>
        <mxCell id="fZVCOgSi_mHKolly4ZE5-21" value="&lt;font style=&quot;font-size: 20px;&quot;&gt;模型构建&lt;/font&gt;" style="rounded=0;whiteSpace=wrap;html=1;" parent="1" vertex="1">
          <mxGeometry x="183" y="396" width="120" height="40" as="geometry" />
        </mxCell>
        <mxCell id="fZVCOgSi_mHKolly4ZE5-22" value="&lt;font style=&quot;font-size: 20px;&quot;&gt;模型编辑&lt;/font&gt;" style="rounded=0;whiteSpace=wrap;html=1;" parent="1" vertex="1">
          <mxGeometry x="330" y="396" width="120" height="40" as="geometry" />
        </mxCell>
        <mxCell id="fZVCOgSi_mHKolly4ZE5-23" value="&lt;font style=&quot;font-size: 20px;&quot;&gt;质量检查&lt;/font&gt;" style="rounded=0;whiteSpace=wrap;html=1;" parent="1" vertex="1">
          <mxGeometry x="470" y="396" width="120" height="40" as="geometry" />
        </mxCell>
        <mxCell id="fZVCOgSi_mHKolly4ZE5-87" value="" style="shape=flexArrow;endArrow=classic;html=1;rounded=0;width=15.428571428571429;endSize=4.474285714285714;exitX=0.51;exitY=1.005;exitDx=0;exitDy=0;endWidth=12.326530612244897;exitPerimeter=0;" parent="1" edge="1">
          <mxGeometry width="50" height="50" relative="1" as="geometry">
            <mxPoint x="586" y="138.25" as="sourcePoint" />
            <mxPoint x="586" y="178" as="targetPoint" />
          </mxGeometry>
        </mxCell>
        <mxCell id="fZVCOgSi_mHKolly4ZE5-93" style="edgeStyle=orthogonalEdgeStyle;rounded=0;orthogonalLoop=1;jettySize=auto;html=1;entryX=0.505;entryY=0.046;entryDx=0;entryDy=0;entryPerimeter=0;" parent="1" source="fZVCOgSi_mHKolly4ZE5-35" target="fZVCOgSi_mHKolly4ZE5-44" edge="1">
          <mxGeometry relative="1" as="geometry">
            <Array as="points">
              <mxPoint x="299" y="688" />
              <mxPoint x="475" y="688" />
            </Array>
          </mxGeometry>
        </mxCell>
        <mxCell id="fZVCOgSi_mHKolly4ZE5-95" style="edgeStyle=orthogonalEdgeStyle;rounded=0;orthogonalLoop=1;jettySize=auto;html=1;entryX=0.535;entryY=-0.002;entryDx=0;entryDy=0;entryPerimeter=0;" parent="1" source="fZVCOgSi_mHKolly4ZE5-48" target="fZVCOgSi_mHKolly4ZE5-45" edge="1">
          <mxGeometry relative="1" as="geometry">
            <mxPoint x="680" y="710" as="targetPoint" />
            <Array as="points">
              <mxPoint x="854" y="688" />
              <mxPoint x="680" y="688" />
            </Array>
          </mxGeometry>
        </mxCell>
        <mxCell id="fZVCOgSi_mHKolly4ZE5-96" style="edgeStyle=orthogonalEdgeStyle;rounded=0;orthogonalLoop=1;jettySize=auto;html=1;entryX=0.915;entryY=0.643;entryDx=0;entryDy=0;entryPerimeter=0;" parent="1" source="fZVCOgSi_mHKolly4ZE5-48" target="fZVCOgSi_mHKolly4ZE5-34" edge="1">
          <mxGeometry relative="1" as="geometry">
            <Array as="points">
              <mxPoint x="854" y="688" />
              <mxPoint x="1040" y="688" />
            </Array>
          </mxGeometry>
        </mxCell>
      </root>
    </mxGraphModel>
  </diagram>
</mxfile>
